<svg xmlns="http://www.w3.org/2000/svg" xmlns:xlink="http://www.w3.org/1999/xlink" viewBox="0 0 561.72 272.46"><defs><style>.cls-1{isolation:isolate;}.cls-2{fill:#fc5b5d;}.cls-3{fill:#974b5a;}.cls-4{fill:#5f424c;}.cls-5{fill:#fd8f5d;}.cls-11,.cls-6{fill:#f1f2f2;}.cls-10,.cls-14,.cls-6,.cls-9{opacity:0.5;}.cls-10,.cls-11,.cls-12,.cls-13,.cls-14,.cls-6,.cls-7,.cls-8,.cls-9{mix-blend-mode:overlay;}.cls-7{fill:url(#radial-gradient);}.cls-13,.cls-8{opacity:0.7;}.cls-8{fill:url(#radial-gradient-2);}.cls-9{fill:url(#radial-gradient-3);}.cls-10{fill:url(#radial-gradient-4);}.cls-11{opacity:0.4;}.cls-12{fill:url(#radial-gradient-5);}.cls-13{fill:url(#linear-gradient);}.cls-14{fill:url(#linear-gradient-2);}.cls-15{fill:#1f6c98;}</style><radialGradient id="radial-gradient" cx="520.09" cy="479.14" r="382.42" gradientTransform="translate(-141.16 999.23) rotate(-90) scale(1 1.38)" gradientUnits="userSpaceOnUse"><stop offset="0.92" stop-color="#fff" stop-opacity="0"/><stop offset="0.92" stop-color="#fff" stop-opacity="0.03"/><stop offset="0.93" stop-color="#fff" stop-opacity="0.1"/><stop offset="0.95" stop-color="#fff" stop-opacity="0.21"/><stop offset="0.96" stop-color="#fff" stop-opacity="0.38"/><stop offset="0.98" stop-color="#fff" stop-opacity="0.59"/><stop offset="0.99" stop-color="#fff" stop-opacity="0.84"/><stop offset="1" stop-color="#fff"/></radialGradient><radialGradient id="radial-gradient-2" cx="127.58" cy="237.02" r="43.71" gradientTransform="translate(0 8.48) scale(1 0.96)" gradientUnits="userSpaceOnUse"><stop offset="0.65"/><stop offset="1" stop-opacity="0"/></radialGradient><radialGradient id="radial-gradient-3" cx="385.21" cy="225.4" r="31.49" gradientTransform="translate(-99.11 255.79) rotate(-41.05) scale(1 1.31)" xlink:href="#radial-gradient-2"/><radialGradient id="radial-gradient-4" cx="621.61" cy="221.09" r="30.55" gradientTransform="translate(391.14 864.95) rotate(-94.94) scale(1 1.29)" xlink:href="#radial-gradient-2"/><radialGradient id="radial-gradient-5" cx="230.34" cy="213.97" r="201.62" gradientTransform="translate(0 91.29) scale(1 0.57)" gradientUnits="userSpaceOnUse"><stop offset="0.72" stop-color="#fff" stop-opacity="0"/><stop offset="0.75" stop-color="#fff" stop-opacity="0.03"/><stop offset="0.78" stop-color="#fff" stop-opacity="0.1"/><stop offset="0.82" stop-color="#fff" stop-opacity="0.21"/><stop offset="0.87" stop-color="#fff" stop-opacity="0.38"/><stop offset="0.92" stop-color="#fff" stop-opacity="0.59"/><stop offset="0.97" stop-color="#fff" stop-opacity="0.84"/><stop offset="1" stop-color="#fff"/></radialGradient><linearGradient id="linear-gradient" x1="350.68" y1="210.2" x2="335.4" y2="194.32" gradientUnits="userSpaceOnUse"><stop offset="0"/><stop offset="0.57" stop-opacity="0"/></linearGradient><linearGradient id="linear-gradient-2" x1="398.92" y1="258.12" x2="415.39" y2="274.99" xlink:href="#linear-gradient"/></defs><g class="cls-1"><g id="OBJECTS"><path class="cls-2" d="M655.86,233.44v1A33.44,33.44,0,0,0,624,201h-.33q-.63,0-1.26,0a33.44,33.44,0,0,0-33.3,30.35.13.13,0,0,0,0,.06,67.27,67.27,0,0,0-4.33-20.81,72.46,72.46,0,0,0-36.2-39.36,69.16,69.16,0,0,0-28.93-6.32h-.56a61.72,61.72,0,0,0-8.9.9c-19.06,3.33-35.22,15.38-49.09,28.25-1.89,1.75-13.29,13.41-23.26,23.75-5.34,5.83-10.53,11.52-15.63,16.6v0l0,0-17.36,17.35a34.19,34.19,0,0,0,4.68-17.34c0-.74,0-1.47-.07-2.2,0-.28,0-.55-.07-.83-.05-.6-.11-1.2-.19-1.79-.05-.34-.11-.68-.16-1s-.11-.64-.18-1-.13-.63-.2-.94-.15-.63-.23-.94-.17-.62-.26-.92-.18-.62-.28-.92-.19-.6-.3-.9-.21-.6-.32-.89-.23-.59-.35-.88-.25-.58-.37-.87c-.25-.55-.51-1.09-.78-1.63a.43.43,0,0,0,0-.07c-.29-.56-.59-1.11-.91-1.65l-7.11-7.1-5.31-5.31c-.22-.14-.44-.26-.67-.38l-.61-.33a32.68,32.68,0,0,0-4.44-2l-.74-.25c-.79-.27-1.58-.5-2.39-.7-.25-.07-.49-.13-.74-.18s-.53-.12-.79-.18l-.38-.08-.8-.14-1.1-.17-1-.12-.82-.08-.73-.05-1,0-1.19,0a34.32,34.32,0,0,0-17.39,4.7l15.8-15.78,1.54-1.54.07-.08,0,0,28.39-28.39L425,137.32a132.8,132.8,0,0,1,48.57-31.11,135.7,135.7,0,0,1,45.72-8h.36c61.8,0,114.29,41.56,130.8,98.24l0,.05q.43,1.51.84,3c0,.1.06.2.08.3a135.48,135.48,0,0,1,3.9,22.25c.06.65.12,1.31.17,2s.09,1.17.12,1.76c.06.77.09,1.53.13,2.3l.06,1.5c.05,1.19.07,2.38.08,3.58C655.85,233.28,655.86,233.36,655.86,233.44Z" transform="translate(-94.14 -98.21)"/><path class="cls-3" d="M409.5,234.44a34.19,34.19,0,0,1-4.68,17.34l-12.47,12.47-17.3,17.32-.07.06,0,0-52.09,52.08a124.21,124.21,0,0,1-30.69,22.64c-18.42,9.52-39.22,14.35-61.82,14.35A135.92,135.92,0,0,1,94.15,235.35a33.35,33.35,0,0,0,32,32.4l1.36,0a33.34,33.34,0,0,0,33.34-33.33,69,69,0,0,0,20.19,49c15.51,15.62,38.54,23.27,60.31,19.43,13-2.31,23.92-8.89,33.95-16.86,6.73-5.35,13.05-11.34,19.29-17.1,1.72-1.58,17.37-15.69,26.61-25.4,4.43-4.66,7.39-8.3,6.64-9.07l29.81-29.81a34.32,34.32,0,0,1,17.39-4.7l1.19,0,1,0,.73.05.82.08,1,.12,1.1.17.8.14.38.08c.26.06.53.11.79.18s.49.11.74.18c.81.2,1.6.43,2.39.7l.74.25a32.68,32.68,0,0,1,4.44,2l.61.33c.23.12.45.24.67.38A34.5,34.5,0,0,1,404.79,217c.32.54.62,1.09.91,1.65a.43.43,0,0,1,0,.07c.27.54.53,1.08.78,1.63.12.29.25.57.37.87s.24.58.35.88.22.59.32.89.21.6.3.9.19.61.28.92.18.61.26.92.15.62.23.94.14.63.2.94.12.64.18,1,.11.67.16,1c.08.59.14,1.19.19,1.79,0,0,0,.07,0,.11,0,.24,0,.48.06.72C409.48,233,409.5,233.7,409.5,234.44Z" transform="translate(-94.14 -98.21)"/><path class="cls-4" d="M375,187.32l-21.86,21.85L327.8,234.45c-5.27-5.26-10.63-11.14-16.15-17.19-22.63-24.75-48-52.34-81.11-52.34h-.19a69.68,69.68,0,0,0-69.54,69v.48a33.34,33.34,0,0,1-33.34,33.33c-.89,0-1.78,0-2.65-.1h0a33.36,33.36,0,0,1-30.66-32.32c0-.3,0-.58,0-.87v-1c.53-74.63,61.6-135.22,136.21-135.22h.36a135.79,135.79,0,0,1,45.72,8A132.91,132.91,0,0,1,325,137.35l21.52,21.53,11.75,11.75Z" transform="translate(-94.14 -98.21)"/><path class="cls-5" d="M655.86,234.44c0,.29,0,.58,0,.86a136.16,136.16,0,0,1-136.2,135.32c-22.6,0-43.4-4.82-61.82-14.34a124.42,124.42,0,0,1-30.69-22.63l-17.58-17.57-34.51-34.51L399.63,257l22.56-22.57q8.35,8.34,16.66,16.7,15.94,16,32,31.92c27,26.73,70.76,28,98.19.37a68.87,68.87,0,0,0,20.11-46c.06-1.16.08-2.34.07-3.52,0-.84,0-1.67-.07-2.5A33.44,33.44,0,0,1,622.42,201l1.59,0A33.44,33.44,0,0,1,655.86,234.44Z" transform="translate(-94.14 -98.21)"/><path class="cls-6" d="M398.49,209.2l-.81.74c-8.92,8.07-17.68,16.3-26,24.88-12.65,13-25,26.34-38,39-13.89,13.47-27.37,28-42.76,40.1-11.28,8.83-23.88,16.37-37.55,20.94-2.92,1-5.89,1.81-8.9,2.49a96.9,96.9,0,0,1-60.73-6.4c-27.77-12.53-47.58-36-57.58-63.17l1.36,0a33.34,33.34,0,0,0,33.34-33.33,69,69,0,0,0,20.19,49c15.51,15.62,38.54,23.27,60.31,19.43,13-2.31,23.92-8.89,33.95-16.86,6.73-5.35,13.05-11.34,19.29-17.1,1.72-1.58,17.37-15.69,26.61-25.4,4.43-4.66,7.39-8.3,6.64-9.07l29.81-29.81,15.8-15.78,1.54-1.54.07-.08,0,0,28.39-28.39L425,137.32a132.8,132.8,0,0,1,48.57-31.11,135.7,135.7,0,0,1,45.72-8h.36c61.8,0,114.29,41.56,130.8,98.24l0,.05q.43,1.51.84,3c0,.1.06.2.08.3a135.48,135.48,0,0,1,3.9,22.25c.06.65.12,1.31.17,2s.09,1.17.12,1.76c.06.77.09,1.53.13,2.3l.06,1.5c.05,1.19.07,2.38.08,3.58,0,.08,0,.16,0,.24v1A33.44,33.44,0,0,0,624,201h-.33a140.82,140.82,0,0,0-11.32-23c-15.29-24.93-40.72-44.38-71-48.29-33.31-4.29-66.37,9.34-89.84,31.76-16.89,16.13-34.81,31.26-52.15,46.9" transform="translate(-94.14 -98.21)"/><path class="cls-7" d="M398.49,209.2l-.81.74c-8.92,8.07-17.68,16.3-26,24.88-12.65,13-25,26.34-38,39-13.89,13.47-27.37,28-42.76,40.1-11.28,8.83-23.88,16.37-37.55,20.94-2.92,1-5.89,1.81-8.9,2.49a96.9,96.9,0,0,1-60.73-6.4c-27.77-12.53-47.58-36-57.58-63.17l1.36,0a33.34,33.34,0,0,0,33.34-33.33,69,69,0,0,0,20.19,49c15.51,15.62,38.54,23.27,60.31,19.43,13-2.31,23.92-8.89,33.95-16.86,6.73-5.35,13.05-11.34,19.29-17.1,1.72-1.58,17.37-15.69,26.61-25.4,4.43-4.66,7.39-8.3,6.64-9.07l29.81-29.81,15.8-15.78,1.54-1.54.07-.08,0,0,28.39-28.39L425,137.32a132.8,132.8,0,0,1,48.57-31.11,135.7,135.7,0,0,1,45.72-8h.36c61.8,0,114.29,41.56,130.8,98.24l0,.05q.43,1.51.84,3c0,.1.06.2.08.3a135.48,135.48,0,0,1,3.9,22.25c.06.65.12,1.31.17,2s.09,1.17.12,1.76c.06.77.09,1.53.13,2.3l.06,1.5c.05,1.19.07,2.38.08,3.58,0,.08,0,.16,0,.24v1A33.44,33.44,0,0,0,624,201h-.33a140.82,140.82,0,0,0-11.32-23c-15.29-24.93-40.72-44.38-71-48.29-33.31-4.29-66.37,9.34-89.84,31.76-16.89,16.13-34.81,31.26-52.15,46.9" transform="translate(-94.14 -98.21)"/><path class="cls-8" d="M160.81,234.44A69.58,69.58,0,0,0,165,258.27a44.43,44.43,0,0,1-66.71,9.66,136.47,136.47,0,0,1-4.11-32.58,33.34,33.34,0,0,0,66.66-.91Z" transform="translate(-94.14 -98.21)"/><path class="cls-9" d="M420.61,234.43c0,.54,0,1.07,0,1.6l-15.77,15.75a34.5,34.5,0,0,0-47.21-47.14l15.8-15.78c.53,0,1.06,0,1.59,0A45.65,45.65,0,0,1,420.61,234.43Z" transform="translate(-94.14 -98.21)"/><path class="cls-10" d="M655.86,233.54v1a33.44,33.44,0,0,0-66.75-3,67.21,67.21,0,0,0-4.33-20.81A44.52,44.52,0,0,1,651.67,201,135.57,135.57,0,0,1,655.86,233.54Z" transform="translate(-94.14 -98.21)"/><path class="cls-11" d="M358.27,170.63,375,187.32l-21.86,21.85c-17-15.91-34.59-31.26-51.16-47.65-22.66-22.42-54.57-36.05-86.73-31.76-29.22,3.91-53.78,23.36-68.54,48.29a156.17,156.17,0,0,0-17.29,44.1,180.34,180.34,0,0,0-3.84,23.44c-.2,2.08,0,21.66-.71,22.08h0a33.36,33.36,0,0,1-30.66-32.32c0-.3,0-.58,0-.87v-1c.53-74.63,61.6-135.22,136.21-135.22h.36a135.79,135.79,0,0,1,45.72,8A132.91,132.91,0,0,1,325,137.35l21.52,21.53Z" transform="translate(-94.14 -98.21)"/><path class="cls-12" d="M358.27,170.63,375,187.32l-21.86,21.85c-17-15.91-34.59-31.26-51.16-47.65-22.66-22.42-54.57-36.05-86.73-31.76-29.22,3.91-53.78,23.36-68.54,48.29a156.17,156.17,0,0,0-17.29,44.1,180.34,180.34,0,0,0-3.84,23.44c-.2,2.08,0,21.66-.71,22.08h0a33.36,33.36,0,0,1-30.66-32.32c0-.3,0-.58,0-.87v-1c.53-74.63,61.6-135.22,136.21-135.22h.36a135.79,135.79,0,0,1,45.72,8A132.91,132.91,0,0,1,325,137.35l21.52,21.53Z" transform="translate(-94.14 -98.21)"/><path class="cls-13" d="M358.27,170.63,375,187.32,327.8,234.45c-5.27-5.26-10.63-11.14-16.15-17.19Z" transform="translate(-94.14 -98.21)"/><path class="cls-11" d="M624,201c-.31,11.54-.24,23.08-1.12,34.59-3,39.78-25.4,78-62.41,95.3a90.56,90.56,0,0,1-58.62,6.4,87.88,87.88,0,0,1-8.59-2.49c-13.21-4.57-25.37-12.11-36.25-20.94-14.86-12.06-27.88-26.63-41.28-40.1-5.47-5.5-10.81-11.12-16.11-16.8l22.56-22.57q8.35,8.34,16.66,16.7,15.94,16,32,31.92c27,26.73,70.76,28,98.19.37a68.87,68.87,0,0,0,20.11-46c.06-1.16.08-2.34.07-3.52,0-.84,0-1.67-.07-2.5A33.44,33.44,0,0,1,622.42,201Z" transform="translate(-94.14 -98.21)"/><path class="cls-14" d="M438.85,251.12l-47.12,47.12-16.68-16.67,47.14-47.15Q430.54,242.76,438.85,251.12Z" transform="translate(-94.14 -98.21)"/><path class="cls-15" d="M422.21,234.43v0l0,0h0Z" transform="translate(-94.14 -98.21)"/></g></g></svg>